<svg xmlns="http://www.w3.org/2000/svg" xmlns:xlink="http://www.w3.org/1999/xlink" width="32" height="32"><defs><path id="a" d="M0 0h31.98v20.715H0z"/></defs><g fill="none" fill-rule="evenodd"><g transform="translate(0 3)"><mask id="b" fill="#fff"><use xlink:href="#a"/></mask><path fill="#AFADAD" d="M31.896 8.574c-.314-1.867-1.733-3.364-2.985-4.365-1.317-1.12-2.817-1.931-4.4-2.6-.197-.09-.389-.19-.59-.265a21.263 21.263 0 0 0-9.65-1.23c-1.148.117-2.292.283-3.41.567-1.065.27-2.723.913-3.349 1.188-1.164.51-2.284 1.102-3.268 1.907-.174.142-.67.528-.79.63-.521.443-1.099 1.026-1.49 1.6-.64.856-1.206 1.746-1.53 2.751-.06.188-.224.647-.327 1.405-.104.76-.16 1.508-.04 2.265.026.161.113.708.132.817.042.244.132.475.369.671 0-.444-.03-.888 0-1.331.061-.928.196-1.466.254-1.663.062-.21.133-.417.217-.622C2.15 7.617 4.198 5.832 6.662 4.46c2.28-1.27 4.736-1.946 7.297-2.255.27-.033 1.052-.065 1.17-.07 3.08-.126 6.018.406 8.75 1.894.934.587 1.738 1.33 2.5 2.121 1.092 1.44 1.271 3.019.714 4.709a.307.307 0 0 0-.035.076c-.674 1.509-1.707 2.746-2.927 3.842-.992.834-1.97 1.683-3.058 2.395-.245.01-.27-.123-.32-.267-.055-.16-.074-.276-.088-.329-.09-.355-.05-.84-.656-.816-1.334.248-2.661.534-4.002.733-1.317.196-2.644.486-3.98.087-.189-.134-.271-.313-.29-.548a3.398 3.398 0 0 1 2.745-3.609 5.24 5.24 0 0 1 2.509.149c.406.122.667.005.912-.315.64-.834 1.054-1.796 1.549-2.712.123-.227.116-.45-.154-.59-.23-.098-.462-.04-.696-.023-1.47.106-2.9.457-4.344.72-.233.043-.559.242-.667-.199.046-.251.086-.504.137-.754.295-1.437.78-1.843 2.254-1.866.944-.014 1.984-.04 2.823.133 1.074.217 1.229.396 1.49.556.129.08.246.146.41.04.483-.229.615-.523 1.086-1.058.32-.42.644-.836.958-1.26.225-.303.225-.576-.149-.77-.113-.055-.188-.047-.288-.05-.87-.036-3.262.032-3.561.027-2.094-.035-4.12.043-6.214.012-.263-.003-.568-.078-.714.26-.412.559-.703 1.184-.973 1.818-1.233 2.884-2.17 5.867-2.946 8.901-.263 1.027-.558 2.055-.475 3.137-.02.592.25.856.855.853 2.307-.01 5.215 0 7.522.004-.083.208-1.237.441-1.544.465-1.256.099-1.983.169-3.249.1-.126-.007-.742.004-.766.112-.019.09.48.22.573.238.375.072 1.158.2 1.479.237.402.046.803.087 1.206.105 2.164.097 4.293-.127 6.37-.76a1.89 1.89 0 0 0 .138-.041c1.625-.379 3.156-1.003 4.624-1.786 2.338-1.246 4.484-2.742 6.06-4.92.99-1.37 1.493-2.866 1.2-4.612" mask="url(#b)"/></g><g transform="translate(8 22)"><rect width="24" height="8" fill="#297EF1" fill-rule="nonzero" rx="1"/><path fill="#FFF" d="M3.051 6.2V1.862h1.497c.284 0 .526.027.727.081.202.054.366.131.495.231.13.1.224.221.284.363.06.142.09.302.09.48a.95.95 0 0 1-.045.293.846.846 0 0 1-.14.26 1.045 1.045 0 0 1-.24.221 1.451 1.451 0 0 1-.346.168c.596.134.894.456.894.966 0 .184-.035.354-.105.51-.07.156-.172.29-.306.404a1.462 1.462 0 0 1-.495.265c-.196.064-.42.096-.672.096H3.051zm.807-1.902V5.57h.819c.15 0 .275-.018.376-.054a.654.654 0 0 0 .243-.144.528.528 0 0 0 .132-.21.792.792 0 0 0-.004-.508.475.475 0 0 0-.141-.192.66.66 0 0 0-.246-.122 1.361 1.361 0 0 0-.363-.042h-.816zm0-.558h.645c.274 0 .482-.05.624-.15.142-.1.213-.259.213-.477 0-.226-.064-.387-.192-.483-.128-.096-.328-.144-.6-.144h-.69V3.74zm7.038-1.878v.642H8.973v1.203h1.515v.621H8.973v1.227h1.923V6.2H8.16V1.862h2.736zm4.956 0v.663h-1.305V6.2h-.807V2.525h-1.311v-.663h3.423zM21.378 6.2h-.624a.273.273 0 0 1-.27-.183l-.324-.885h-1.797l-.324.885a.284.284 0 0 1-.267.183h-.627l1.704-4.338h.825L21.378 6.2zM18.57 4.562h1.383l-.528-1.443a6.59 6.59 0 0 1-.165-.51 9.996 9.996 0 0 1-.082.285 3.19 3.19 0 0 1-.08.231l-.528 1.437z"/></g></g></svg>